<svg width="113" height="166" viewBox="0 0 113 166" fill="none" xmlns="http://www.w3.org/2000/svg">
<path d="M5.65881 12L2.82681 3.6H3.73881L6.39081 11.508H5.93481L8.67081 3.6H9.48681L12.1868 11.508H11.7548L14.4308 3.6H15.2828L12.4508 12H11.5148L8.93481 4.5H9.17481L6.58281 12H5.65881ZM56.703 7.356H61.143V8.112H56.703V7.356ZM56.799 11.232H61.851V12H55.911V3.6H61.671V4.368H56.799V11.232ZM102.938 12V3.6H106.562C107.498 3.6 108.222 3.788 108.734 4.164C109.254 4.54 109.514 5.072 109.514 5.76C109.514 6.216 109.406 6.6 109.19 6.912C108.982 7.224 108.694 7.46 108.326 7.62C107.966 7.78 107.57 7.86 107.138 7.86L107.342 7.572C107.878 7.572 108.338 7.656 108.722 7.824C109.114 7.984 109.418 8.228 109.634 8.556C109.85 8.876 109.958 9.276 109.958 9.756C109.958 10.468 109.694 11.02 109.166 11.412C108.646 11.804 107.858 12 106.802 12H102.938ZM103.826 11.268H106.79C107.526 11.268 108.09 11.144 108.482 10.896C108.874 10.64 109.07 10.236 109.07 9.684C109.07 9.14 108.874 8.744 108.482 8.496C108.09 8.24 107.526 8.112 106.79 8.112H103.73V7.38H106.502C107.174 7.38 107.694 7.252 108.062 6.996C108.438 6.74 108.626 6.36 108.626 5.856C108.626 5.344 108.438 4.964 108.062 4.716C107.694 4.46 107.174 4.332 106.502 4.332H103.826V11.268Z" fill="#130952"/>
<path d="M57.0001 33L101.167 58V108L57.0001 133L12.8328 108V58L57.0001 33Z" fill="url(#paint0_linear_83_114)"/>
<g filter="url(#filter0_d_83_114)">
<path d="M4.5 53.7926L56.5 24.5735L108.5 53.7926V112.207L56.5 141.426L4.5 112.207V53.7926Z" stroke="#130952" shape-rendering="crispEdges"/>
</g>
<path d="M108.5 54L56.5 79V136" stroke="url(#paint1_linear_83_114)"/>
<path d="M8.37609 163.06C7.85609 163.06 7.36409 162.988 6.90009 162.844C6.43609 162.692 6.07209 162.504 5.80809 162.28L6.19209 161.608C6.44809 161.8 6.77609 161.968 7.17609 162.112C7.57609 162.248 7.99609 162.316 8.43609 162.316C9.03609 162.316 9.46809 162.224 9.73209 162.04C9.99609 161.848 10.1281 161.596 10.1281 161.284C10.1281 161.052 10.0521 160.872 9.90009 160.744C9.75609 160.608 9.56409 160.508 9.32409 160.444C9.08409 160.372 8.81609 160.312 8.52009 160.264C8.22409 160.216 7.92809 160.16 7.63209 160.096C7.34409 160.032 7.08009 159.94 6.84009 159.82C6.60009 159.692 6.40409 159.52 6.25209 159.304C6.10809 159.088 6.03609 158.8 6.03609 158.44C6.03609 158.096 6.13209 157.788 6.32409 157.516C6.51609 157.244 6.79609 157.032 7.16409 156.88C7.54009 156.72 7.99609 156.64 8.53209 156.64C8.94009 156.64 9.34809 156.696 9.75609 156.808C10.1641 156.912 10.5001 157.052 10.7641 157.228L10.3921 157.912C10.1121 157.72 9.81209 157.584 9.49209 157.504C9.17209 157.416 8.85209 157.372 8.53209 157.372C7.96409 157.372 7.54409 157.472 7.27209 157.672C7.00809 157.864 6.87609 158.112 6.87609 158.416C6.87609 158.656 6.94809 158.844 7.09209 158.98C7.24409 159.116 7.44009 159.224 7.68009 159.304C7.92809 159.376 8.19609 159.436 8.48409 159.484C8.78009 159.532 9.07209 159.592 9.36009 159.664C9.65609 159.728 9.92409 159.82 10.1641 159.94C10.4121 160.052 10.6081 160.216 10.7521 160.432C10.9041 160.64 10.9801 160.916 10.9801 161.26C10.9801 161.628 10.8761 161.948 10.6681 162.22C10.4681 162.484 10.1721 162.692 9.78009 162.844C9.39609 162.988 8.92809 163.06 8.37609 163.06ZM27.7115 163.06C27.1035 163.06 26.5555 162.924 26.0675 162.652C25.5875 162.372 25.2075 161.992 24.9275 161.512C24.6475 161.024 24.5075 160.468 24.5075 159.844C24.5075 159.212 24.6475 158.656 24.9275 158.176C25.2075 157.696 25.5875 157.32 26.0675 157.048C26.5475 156.776 27.0955 156.64 27.7115 156.64C28.3355 156.64 28.8875 156.776 29.3675 157.048C29.8555 157.32 30.2355 157.696 30.5075 158.176C30.7875 158.656 30.9275 159.212 30.9275 159.844C30.9275 160.468 30.7875 161.024 30.5075 161.512C30.2355 161.992 29.8555 162.372 29.3675 162.652C28.8795 162.924 28.3275 163.06 27.7115 163.06ZM27.7115 162.304C28.1675 162.304 28.5715 162.204 28.9235 162.004C29.2755 161.796 29.5515 161.508 29.7515 161.14C29.9595 160.764 30.0635 160.332 30.0635 159.844C30.0635 159.348 29.9595 158.916 29.7515 158.548C29.5515 158.18 29.2755 157.896 28.9235 157.696C28.5715 157.488 28.1715 157.384 27.7235 157.384C27.2755 157.384 26.8755 157.488 26.5235 157.696C26.1715 157.896 25.8915 158.18 25.6835 158.548C25.4755 158.916 25.3715 159.348 25.3715 159.844C25.3715 160.332 25.4755 160.764 25.6835 161.14C25.8915 161.508 26.1715 161.796 26.5235 162.004C26.8755 162.204 27.2715 162.304 27.7115 162.304ZM47.8709 163.06C47.3349 163.06 46.8669 162.96 46.4669 162.76C46.0669 162.56 45.7549 162.26 45.5309 161.86C45.3149 161.46 45.2069 160.96 45.2069 160.36V156.7H46.0589V160.264C46.0589 160.936 46.2229 161.444 46.5509 161.788C46.8869 162.124 47.3549 162.292 47.9549 162.292C48.3949 162.292 48.7749 162.204 49.0949 162.028C49.4229 161.844 49.6709 161.58 49.8389 161.236C50.0149 160.892 50.1029 160.48 50.1029 160V156.7H50.9549V163H50.1389V161.272L50.2709 161.584C50.0709 162.048 49.7589 162.412 49.3349 162.676C48.9189 162.932 48.4309 163.06 47.8709 163.06ZM65.9294 163V156.7H66.7454V158.416L66.6614 158.116C66.8374 157.636 67.1334 157.272 67.5494 157.024C67.9654 156.768 68.4814 156.64 69.0974 156.64V157.468C69.0654 157.468 69.0334 157.468 69.0014 157.468C68.9694 157.46 68.9374 157.456 68.9054 157.456C68.2414 157.456 67.7214 157.66 67.3454 158.068C66.9694 158.468 66.7814 159.04 66.7814 159.784V163H65.9294ZM85.8095 163.06C85.1855 163.06 84.6255 162.924 84.1295 162.652C83.6415 162.372 83.2575 161.992 82.9775 161.512C82.6975 161.024 82.5575 160.468 82.5575 159.844C82.5575 159.212 82.6975 158.656 82.9775 158.176C83.2575 157.696 83.6415 157.32 84.1295 157.048C84.6255 156.776 85.1855 156.64 85.8095 156.64C86.3455 156.64 86.8295 156.744 87.2615 156.952C87.6935 157.16 88.0335 157.472 88.2815 157.888L87.6455 158.32C87.4295 158 87.1615 157.764 86.8415 157.612C86.5215 157.46 86.1735 157.384 85.7975 157.384C85.3495 157.384 84.9455 157.488 84.5855 157.696C84.2255 157.896 83.9415 158.18 83.7335 158.548C83.5255 158.916 83.4215 159.348 83.4215 159.844C83.4215 160.34 83.5255 160.772 83.7335 161.14C83.9415 161.508 84.2255 161.796 84.5855 162.004C84.9455 162.204 85.3495 162.304 85.7975 162.304C86.1735 162.304 86.5215 162.228 86.8415 162.076C87.1615 161.924 87.4295 161.692 87.6455 161.38L88.2815 161.812C88.0335 162.22 87.6935 162.532 87.2615 162.748C86.8295 162.956 86.3455 163.06 85.8095 163.06ZM105.126 163.06C104.47 163.06 103.894 162.924 103.398 162.652C102.902 162.372 102.514 161.992 102.234 161.512C101.954 161.024 101.814 160.468 101.814 159.844C101.814 159.22 101.946 158.668 102.21 158.188C102.482 157.708 102.85 157.332 103.314 157.06C103.786 156.78 104.314 156.64 104.898 156.64C105.49 156.64 106.014 156.776 106.47 157.048C106.934 157.312 107.298 157.688 107.562 158.176C107.826 158.656 107.958 159.212 107.958 159.844C107.958 159.884 107.954 159.928 107.946 159.976C107.946 160.016 107.946 160.06 107.946 160.108H102.462V159.472H107.49L107.154 159.724C107.154 159.268 107.054 158.864 106.854 158.512C106.662 158.152 106.398 157.872 106.062 157.672C105.726 157.472 105.338 157.372 104.898 157.372C104.466 157.372 104.078 157.472 103.734 157.672C103.39 157.872 103.122 158.152 102.93 158.512C102.738 158.872 102.642 159.284 102.642 159.748V159.88C102.642 160.36 102.746 160.784 102.954 161.152C103.17 161.512 103.466 161.796 103.842 162.004C104.226 162.204 104.662 162.304 105.15 162.304C105.534 162.304 105.89 162.236 106.218 162.1C106.554 161.964 106.842 161.756 107.082 161.476L107.562 162.028C107.282 162.364 106.93 162.62 106.506 162.796C106.09 162.972 105.63 163.06 105.126 163.06Z" fill="#130952"/>
<defs>
<filter id="filter0_d_83_114" x="0" y="20" width="113" height="126" filterUnits="userSpaceOnUse" color-interpolation-filters="sRGB">
<feFlood flood-opacity="0" result="BackgroundImageFix"/>
<feColorMatrix in="SourceAlpha" type="matrix" values="0 0 0 0 0 0 0 0 0 0 0 0 0 0 0 0 0 0 127 0" result="hardAlpha"/>
<feOffset/>
<feGaussianBlur stdDeviation="2"/>
<feComposite in2="hardAlpha" operator="out"/>
<feColorMatrix type="matrix" values="0 0 0 0 0.0745098 0 0 0 0 0.0352941 0 0 0 0 0.321569 0 0 0 1 0"/>
<feBlend mode="normal" in2="BackgroundImageFix" result="effect1_dropShadow_83_114"/>
<feBlend mode="normal" in="SourceGraphic" in2="effect1_dropShadow_83_114" result="shape"/>
</filter>
<linearGradient id="paint0_linear_83_114" x1="57.0001" y1="33" x2="57.0001" y2="133" gradientUnits="userSpaceOnUse">
<stop stop-color="#FFB229"/>
<stop offset="1" stop-color="#FF5B5B"/>
</linearGradient>
<linearGradient id="paint1_linear_83_114" x1="82.5" y1="54" x2="82.5" y2="136" gradientUnits="userSpaceOnUse">
<stop stop-color="#130952"/>
<stop offset="1" stop-color="#130952" stop-opacity="0"/>
</linearGradient>
</defs>
</svg>
