<svg width="39" height="38" viewBox="0 0 39 38" fill="none" xmlns="http://www.w3.org/2000/svg">
<path d="M29.2857 11H10.7143C10.3192 11 10 11.325 10 11.7273V26.2727C10 26.675 10.3192 27 10.7143 27H29.2857C29.6808 27 30 26.675 30 26.2727V11.7273C30 11.325 29.6808 11 29.2857 11ZM27.4821 13.475L20.4397 19.0545C20.2656 19.1932 20.0223 19.1932 19.8482 19.0545L12.8036 13.475C12.777 13.4541 12.7575 13.4253 12.7479 13.3926C12.7382 13.3599 12.7388 13.325 12.7497 13.2926C12.7605 13.2603 12.781 13.2322 12.8083 13.2124C12.8355 13.1925 12.8682 13.1818 12.9018 13.1818H27.3839C27.4175 13.1818 27.4502 13.1925 27.4775 13.2124C27.5047 13.2322 27.5252 13.2603 27.5361 13.2926C27.5469 13.325 27.5475 13.3599 27.5378 13.3926C27.5282 13.4253 27.5087 13.4541 27.4821 13.475Z" fill="#130952"/>
<rect x="0.5" y="0.5" width="38" height="37" stroke="url(#paint0_linear_20_184)"/>
<defs>
<linearGradient id="paint0_linear_20_184" x1="31" y1="7.79487" x2="4.21417" y2="35.2856" gradientUnits="userSpaceOnUse">
<stop stop-color="#130952" stop-opacity="0"/>
<stop offset="0.458333" stop-color="#130952"/>
<stop offset="1" stop-opacity="0"/>
</linearGradient>
</defs>
</svg>
