<svg width="39" height="38" viewBox="0 0 39 38" fill="none" xmlns="http://www.w3.org/2000/svg">
<rect x="0.5" y="37.5" width="37" height="38" transform="rotate(-90 0.5 37.5)" stroke="url(#paint0_linear_20_183)"/>
<path fill-rule="evenodd" clip-rule="evenodd" d="M30.45 12.948C30.616 12.402 30.45 12 29.655 12H27.03C26.362 12 26.054 12.347 25.887 12.73C25.887 12.73 24.552 15.926 22.661 18.002C22.049 18.604 21.771 18.795 21.437 18.795C21.27 18.795 21.019 18.604 21.019 18.057V12.948C21.019 12.292 20.835 12 20.279 12H16.151C15.734 12 15.483 12.304 15.483 12.593C15.483 13.214 16.429 13.358 16.526 15.106V18.904C16.526 19.737 16.373 19.888 16.039 19.888C15.149 19.888 12.984 16.677 11.699 13.003C11.45 12.288 11.198 12 10.527 12H7.9C7.15 12 7 12.347 7 12.73C7 13.412 7.89 16.8 11.145 21.281C13.315 24.341 16.37 26 19.153 26C20.822 26 21.028 25.632 21.028 24.997V22.684C21.028 21.947 21.186 21.8 21.715 21.8C22.105 21.8 22.772 21.992 24.33 23.467C26.11 25.216 26.403 26 27.405 26H30.03C30.78 26 31.156 25.632 30.94 24.904C30.702 24.18 29.852 23.129 28.725 21.882C28.113 21.172 27.195 20.407 26.916 20.024C26.527 19.533 26.638 19.314 26.916 18.877C26.916 18.877 30.116 14.451 30.449 12.948H30.45Z" fill="#130952"/>
<defs>
<linearGradient id="paint0_linear_20_183" x1="30.2051" y1="46" x2="2.7144" y2="72.7858" gradientUnits="userSpaceOnUse">
<stop stop-color="#130952" stop-opacity="0"/>
<stop offset="0.458333" stop-color="#130952"/>
<stop offset="1" stop-opacity="0"/>
</linearGradient>
</defs>
</svg>
